<svg width="197" height="43" viewBox="0 0 197 43" fill="none" xmlns="http://www.w3.org/2000/svg">
<g filter="url(#filter0_d_10_108)">
<mask id="path-1-inside-1_10_108" fill="white">
<path d="M56.9023 0.000440121C56.6398 0.000440121 56.428 0.240063 56.428 0.537005V17.5588C56.4221 17.6904 56.4186 17.8495 56.4186 18.0042C56.4186 18.0451 56.4233 18.0875 56.4324 18.1266C56.423 18.3507 56.4162 18.7301 56.4162 19.3951L56.428 34.3566C56.428 34.6535 56.6398 34.8932 56.9023 34.8932H60.7264C60.8522 34.8932 60.973 34.8357 61.0626 34.7343C61.1521 34.6329 61.2007 34.498 61.2007 34.354L61.1983 19.244C61.3272 15.357 61.626 14.2236 67.479 14.0867C74.2075 14.0934 74.7313 16.2678 74.7313 19.3404V34.354C74.7313 34.6509 74.9431 34.8932 75.2055 34.8932H79.0159C79.2783 34.8932 79.4901 34.6509 79.4901 34.354V18.012C79.4901 15.4195 78.5643 9.38781 70.0001 9.38781L67.5458 9.37448C67.5269 9.37048 67.5086 9.36914 67.4883 9.36914H65.6257C63.9518 9.36914 62.3889 9.70583 61.2007 10.3068V0.536579C61.2007 0.239623 60.9889 0 60.7264 0L56.9023 0.000440121ZM117.004 0.000440121C112.282 0.000440121 109.577 3.08094 109.577 8.45272V34.354C109.577 34.6509 109.788 34.8931 110.051 34.8931H113.873C114.135 34.8931 114.347 34.6509 114.347 34.354V14.0659H121.406C121.668 14.0659 121.882 13.8263 121.882 13.5293V9.93741C121.882 9.63868 121.668 9.39824 121.406 9.39824H114.347V7.63225C114.347 5.66917 115.337 4.6733 117.287 4.6733H125.246C125.509 4.6733 125.72 4.4319 125.72 4.13672V0.537005C125.72 0.240063 125.509 0.000440121 125.246 0.000440121H117.004ZM41.7278 9.28883C35.8764 9.28883 30.1634 9.96596 30.1634 18.0459L30.1563 26.2611C30.1563 34.3215 35.8731 34.9973 41.7277 34.9973L42.2848 35C50.4451 35 53.4786 33.2235 53.4786 28.4492V27.6573C53.4786 27.5044 53.3697 27.3786 53.2346 27.3786H49.2953C49.1617 27.3786 49.0536 27.5044 49.0536 27.6573V27.738C49.0536 29.8736 48.6012 30.5615 43.2449 30.5615L42.0569 30.5722C36.4506 30.5722 34.5859 29.9339 34.5859 26.1624L34.5836 25.704L34.5883 18.0982C34.5883 14.357 36.3821 13.7194 41.7715 13.6963H43.2426C48.6021 13.6963 49.0536 14.3802 49.0536 16.5015V16.6396C49.0536 16.7925 49.1619 16.9183 49.2954 16.9183H53.2346C53.3698 16.9183 53.4787 16.7925 53.4787 16.6396V15.8451C53.4787 11.0708 50.4458 9.2943 42.2918 9.2943L41.7278 9.28883ZM82.9598 9.38005C82.6973 9.38005 82.4832 9.61967 82.4832 9.91663V26.243C82.4832 29.4685 83.6806 34.8828 91.6947 34.8828H96.7229C104.737 34.8828 105.934 29.4685 105.934 26.243V9.91663C105.934 9.61967 105.723 9.38005 105.46 9.38005H101.636C101.374 9.38005 101.162 9.61967 101.162 9.91663V25.2844C101.162 28.2593 100.679 30.2099 94.2226 30.2099C87.7456 30.2099 87.2628 28.2593 87.2628 25.2844V9.91663C87.2628 9.61967 87.0487 9.38005 86.7862 9.38005H82.9598ZM15.0994 9.40366C7.00669 9.40366 4 11.2014 4 16.0327V17.4001C4 22.3345 6.12774 24.3469 11.349 24.3469H18.7393C22.8116 24.3469 22.8121 25.4931 22.8121 27.0792V27.2616C22.8121 29.8594 22.0559 30.2179 16.6005 30.2179H5.20641C4.94393 30.2179 4.72983 30.4601 4.72983 30.7571V34.3542C4.72983 34.6511 4.94393 34.8934 5.20641 34.8934H17.3672C21.1896 34.8934 27.5848 34.8927 27.5848 27.3996V27.3084C27.5848 20.2509 23.3242 19.6766 18.1753 19.6766H12.3159C8.77172 19.6766 8.77267 18.6714 8.77267 17.4001V16.5327C8.77267 14.7065 9.0344 14.0765 14.1739 14.0765H26.406C26.6685 14.0765 26.8803 13.8342 26.8803 13.5373V9.94278C26.8803 9.64583 26.6685 9.4036 26.406 9.4036L15.0994 9.40366Z"/>
<path d="M128.512 0.537005C128.512 0.240063 128.724 0.000440092 128.986 0.000440092L132.81 0C133.073 0 133.284 0.239623 133.284 0.536579V10.3068C134.473 9.70583 136.036 9.36914 137.709 9.36914H139.572C139.592 9.36914 139.611 9.37048 139.63 9.37448L142.084 9.38781C150.648 9.38781 151.574 15.4195 151.574 18.012V34.354C151.574 34.6509 151.362 34.8932 151.1 34.8932H147.289C147.027 34.8932 146.815 34.6509 146.815 34.354V19.3404C146.815 16.2678 146.291 14.0934 139.563 14.0867C133.71 14.2236 133.411 15.357 133.282 19.244L133.284 34.354C133.284 34.498 133.236 34.6329 133.146 34.7343C133.057 34.8357 132.936 34.8932 132.81 34.8932H128.986C128.724 34.8932 128.512 34.6535 128.512 34.3566L128.5 19.3951C128.5 18.7301 128.507 18.3507 128.516 18.1266C128.507 18.0875 128.502 18.0451 128.502 18.0042C128.502 17.8495 128.506 17.6904 128.512 17.5588V0.537005Z"/>
<path d="M154.185 18.0459C154.185 9.96595 159.898 9.28882 165.749 9.28882L166.313 9.29429C174.467 9.29429 177.5 11.0708 177.5 15.8451V22.8471C177.5 23 177.391 23.1258 177.256 23.1258H160.242C160.108 23.1258 160 23 160 22.8471V19.3C160 19.1343 160.134 19 160.3 19H173.075L173.075 16.5015C173.075 14.3802 172.623 13.6962 167.264 13.6962H165.793C160.403 13.7194 158.61 14.357 158.61 18.0982L158.605 25.704L158.607 26.1624C158.607 29.9338 160.472 30.5722 166.078 30.5722L167.266 30.5615C172.623 30.5615 173.075 29.8735 173.075 27.738V27.6573C173.075 27.5044 173.183 27.3786 173.317 27.3786H177.256C177.391 27.3786 177.5 27.5044 177.5 27.6573V28.4491C177.5 33.2235 174.466 35 166.306 35L165.749 34.9973C159.894 34.9973 154.178 34.3215 154.178 26.2611L154.185 18.0459Z"/>
<path d="M180.912 9.14819C180.65 9.14819 180.438 9.38781 180.438 9.68476V17.5588C180.432 17.6904 180.428 17.8495 180.428 18.0042C180.428 18.0451 180.433 18.0875 180.442 18.1266C180.433 18.3507 180.426 18.7301 180.426 19.3951L180.438 34.3566C180.438 34.6535 180.65 34.8932 180.912 34.8932H184.736C184.862 34.8932 184.983 34.8357 185.072 34.7343C185.162 34.6329 185.211 34.498 185.211 34.354L185.208 19.244C185.335 15.4238 186.137 14.4634 191.703 14.2947C191.857 14.29 191.986 14.1704 191.999 14.0194C192 14.0023 192.001 13.9877 192.004 13.9708C192.059 13.6538 192.665 10.1405 192.665 9.98233C192.665 9.83545 192.56 9.71313 192.421 9.68873C192.385 9.68242 192.349 9.6781 192.315 9.66617C190.422 9.01232 186.135 9.68906 185.208 10.1624V9.5C185.208 9.20304 184.999 9.14775 184.736 9.14775L180.912 9.14819Z"/>
</mask>
<path d="M56.9023 0.000440121C56.6398 0.000440121 56.428 0.240063 56.428 0.537005V17.5588C56.4221 17.6904 56.4186 17.8495 56.4186 18.0042C56.4186 18.0451 56.4233 18.0875 56.4324 18.1266C56.423 18.3507 56.4162 18.7301 56.4162 19.3951L56.428 34.3566C56.428 34.6535 56.6398 34.8932 56.9023 34.8932H60.7264C60.8522 34.8932 60.973 34.8357 61.0626 34.7343C61.1521 34.6329 61.2007 34.498 61.2007 34.354L61.1983 19.244C61.3272 15.357 61.626 14.2236 67.479 14.0867C74.2075 14.0934 74.7313 16.2678 74.7313 19.3404V34.354C74.7313 34.6509 74.9431 34.8932 75.2055 34.8932H79.0159C79.2783 34.8932 79.4901 34.6509 79.4901 34.354V18.012C79.4901 15.4195 78.5643 9.38781 70.0001 9.38781L67.5458 9.37448C67.5269 9.37048 67.5086 9.36914 67.4883 9.36914H65.6257C63.9518 9.36914 62.3889 9.70583 61.2007 10.3068V0.536579C61.2007 0.239623 60.9889 0 60.7264 0L56.9023 0.000440121ZM117.004 0.000440121C112.282 0.000440121 109.577 3.08094 109.577 8.45272V34.354C109.577 34.6509 109.788 34.8931 110.051 34.8931H113.873C114.135 34.8931 114.347 34.6509 114.347 34.354V14.0659H121.406C121.668 14.0659 121.882 13.8263 121.882 13.5293V9.93741C121.882 9.63868 121.668 9.39824 121.406 9.39824H114.347V7.63225C114.347 5.66917 115.337 4.6733 117.287 4.6733H125.246C125.509 4.6733 125.72 4.4319 125.72 4.13672V0.537005C125.72 0.240063 125.509 0.000440121 125.246 0.000440121H117.004ZM41.7278 9.28883C35.8764 9.28883 30.1634 9.96596 30.1634 18.0459L30.1563 26.2611C30.1563 34.3215 35.8731 34.9973 41.7277 34.9973L42.2848 35C50.4451 35 53.4786 33.2235 53.4786 28.4492V27.6573C53.4786 27.5044 53.3697 27.3786 53.2346 27.3786H49.2953C49.1617 27.3786 49.0536 27.5044 49.0536 27.6573V27.738C49.0536 29.8736 48.6012 30.5615 43.2449 30.5615L42.0569 30.5722C36.4506 30.5722 34.5859 29.9339 34.5859 26.1624L34.5836 25.704L34.5883 18.0982C34.5883 14.357 36.3821 13.7194 41.7715 13.6963H43.2426C48.6021 13.6963 49.0536 14.3802 49.0536 16.5015V16.6396C49.0536 16.7925 49.1619 16.9183 49.2954 16.9183H53.2346C53.3698 16.9183 53.4787 16.7925 53.4787 16.6396V15.8451C53.4787 11.0708 50.4458 9.2943 42.2918 9.2943L41.7278 9.28883ZM82.9598 9.38005C82.6973 9.38005 82.4832 9.61967 82.4832 9.91663V26.243C82.4832 29.4685 83.6806 34.8828 91.6947 34.8828H96.7229C104.737 34.8828 105.934 29.4685 105.934 26.243V9.91663C105.934 9.61967 105.723 9.38005 105.46 9.38005H101.636C101.374 9.38005 101.162 9.61967 101.162 9.91663V25.2844C101.162 28.2593 100.679 30.2099 94.2226 30.2099C87.7456 30.2099 87.2628 28.2593 87.2628 25.2844V9.91663C87.2628 9.61967 87.0487 9.38005 86.7862 9.38005H82.9598ZM15.0994 9.40366C7.00669 9.40366 4 11.2014 4 16.0327V17.4001C4 22.3345 6.12774 24.3469 11.349 24.3469H18.7393C22.8116 24.3469 22.8121 25.4931 22.8121 27.0792V27.2616C22.8121 29.8594 22.0559 30.2179 16.6005 30.2179H5.20641C4.94393 30.2179 4.72983 30.4601 4.72983 30.7571V34.3542C4.72983 34.6511 4.94393 34.8934 5.20641 34.8934H17.3672C21.1896 34.8934 27.5848 34.8927 27.5848 27.3996V27.3084C27.5848 20.2509 23.3242 19.6766 18.1753 19.6766H12.3159C8.77172 19.6766 8.77267 18.6714 8.77267 17.4001V16.5327C8.77267 14.7065 9.0344 14.0765 14.1739 14.0765H26.406C26.6685 14.0765 26.8803 13.8342 26.8803 13.5373V9.94278C26.8803 9.64583 26.6685 9.4036 26.406 9.4036L15.0994 9.40366Z" fill="white"/>
<path d="M128.512 0.537005C128.512 0.240063 128.724 0.000440092 128.986 0.000440092L132.81 0C133.073 0 133.284 0.239623 133.284 0.536579V10.3068C134.473 9.70583 136.036 9.36914 137.709 9.36914H139.572C139.592 9.36914 139.611 9.37048 139.63 9.37448L142.084 9.38781C150.648 9.38781 151.574 15.4195 151.574 18.012V34.354C151.574 34.6509 151.362 34.8932 151.1 34.8932H147.289C147.027 34.8932 146.815 34.6509 146.815 34.354V19.3404C146.815 16.2678 146.291 14.0934 139.563 14.0867C133.71 14.2236 133.411 15.357 133.282 19.244L133.284 34.354C133.284 34.498 133.236 34.6329 133.146 34.7343C133.057 34.8357 132.936 34.8932 132.81 34.8932H128.986C128.724 34.8932 128.512 34.6535 128.512 34.3566L128.5 19.3951C128.5 18.7301 128.507 18.3507 128.516 18.1266C128.507 18.0875 128.502 18.0451 128.502 18.0042C128.502 17.8495 128.506 17.6904 128.512 17.5588V0.537005Z" fill="white"/>
<path d="M154.185 18.0459C154.185 9.96595 159.898 9.28882 165.749 9.28882L166.313 9.29429C174.467 9.29429 177.5 11.0708 177.5 15.8451V22.8471C177.5 23 177.391 23.1258 177.256 23.1258H160.242C160.108 23.1258 160 23 160 22.8471V19.3C160 19.1343 160.134 19 160.3 19H173.075L173.075 16.5015C173.075 14.3802 172.623 13.6962 167.264 13.6962H165.793C160.403 13.7194 158.61 14.357 158.61 18.0982L158.605 25.704L158.607 26.1624C158.607 29.9338 160.472 30.5722 166.078 30.5722L167.266 30.5615C172.623 30.5615 173.075 29.8735 173.075 27.738V27.6573C173.075 27.5044 173.183 27.3786 173.317 27.3786H177.256C177.391 27.3786 177.5 27.5044 177.5 27.6573V28.4491C177.5 33.2235 174.466 35 166.306 35L165.749 34.9973C159.894 34.9973 154.178 34.3215 154.178 26.2611L154.185 18.0459Z" fill="white"/>
<path d="M180.912 9.14819C180.65 9.14819 180.438 9.38781 180.438 9.68476V17.5588C180.432 17.6904 180.428 17.8495 180.428 18.0042C180.428 18.0451 180.433 18.0875 180.442 18.1266C180.433 18.3507 180.426 18.7301 180.426 19.3951L180.438 34.3566C180.438 34.6535 180.65 34.8932 180.912 34.8932H184.736C184.862 34.8932 184.983 34.8357 185.072 34.7343C185.162 34.6329 185.211 34.498 185.211 34.354L185.208 19.244C185.335 15.4238 186.137 14.4634 191.703 14.2947C191.857 14.29 191.986 14.1704 191.999 14.0194C192 14.0023 192.001 13.9877 192.004 13.9708C192.059 13.6538 192.665 10.1405 192.665 9.98233C192.665 9.83545 192.56 9.71313 192.421 9.68873C192.385 9.68242 192.349 9.6781 192.315 9.66617C190.422 9.01232 186.135 9.68906 185.208 10.1624V9.5C185.208 9.20304 184.999 9.14775 184.736 9.14775L180.912 9.14819Z" fill="white"/>
<path d="M56.9023 0.000440121C56.6398 0.000440121 56.428 0.240063 56.428 0.537005V17.5588C56.4221 17.6904 56.4186 17.8495 56.4186 18.0042C56.4186 18.0451 56.4233 18.0875 56.4324 18.1266C56.423 18.3507 56.4162 18.7301 56.4162 19.3951L56.428 34.3566C56.428 34.6535 56.6398 34.8932 56.9023 34.8932H60.7264C60.8522 34.8932 60.973 34.8357 61.0626 34.7343C61.1521 34.6329 61.2007 34.498 61.2007 34.354L61.1983 19.244C61.3272 15.357 61.626 14.2236 67.479 14.0867C74.2075 14.0934 74.7313 16.2678 74.7313 19.3404V34.354C74.7313 34.6509 74.9431 34.8932 75.2055 34.8932H79.0159C79.2783 34.8932 79.4901 34.6509 79.4901 34.354V18.012C79.4901 15.4195 78.5643 9.38781 70.0001 9.38781L67.5458 9.37448C67.5269 9.37048 67.5086 9.36914 67.4883 9.36914H65.6257C63.9518 9.36914 62.3889 9.70583 61.2007 10.3068V0.536579C61.2007 0.239623 60.9889 0 60.7264 0L56.9023 0.000440121ZM117.004 0.000440121C112.282 0.000440121 109.577 3.08094 109.577 8.45272V34.354C109.577 34.6509 109.788 34.8931 110.051 34.8931H113.873C114.135 34.8931 114.347 34.6509 114.347 34.354V14.0659H121.406C121.668 14.0659 121.882 13.8263 121.882 13.5293V9.93741C121.882 9.63868 121.668 9.39824 121.406 9.39824H114.347V7.63225C114.347 5.66917 115.337 4.6733 117.287 4.6733H125.246C125.509 4.6733 125.72 4.4319 125.72 4.13672V0.537005C125.72 0.240063 125.509 0.000440121 125.246 0.000440121H117.004ZM41.7278 9.28883C35.8764 9.28883 30.1634 9.96596 30.1634 18.0459L30.1563 26.2611C30.1563 34.3215 35.8731 34.9973 41.7277 34.9973L42.2848 35C50.4451 35 53.4786 33.2235 53.4786 28.4492V27.6573C53.4786 27.5044 53.3697 27.3786 53.2346 27.3786H49.2953C49.1617 27.3786 49.0536 27.5044 49.0536 27.6573V27.738C49.0536 29.8736 48.6012 30.5615 43.2449 30.5615L42.0569 30.5722C36.4506 30.5722 34.5859 29.9339 34.5859 26.1624L34.5836 25.704L34.5883 18.0982C34.5883 14.357 36.3821 13.7194 41.7715 13.6963H43.2426C48.6021 13.6963 49.0536 14.3802 49.0536 16.5015V16.6396C49.0536 16.7925 49.1619 16.9183 49.2954 16.9183H53.2346C53.3698 16.9183 53.4787 16.7925 53.4787 16.6396V15.8451C53.4787 11.0708 50.4458 9.2943 42.2918 9.2943L41.7278 9.28883ZM82.9598 9.38005C82.6973 9.38005 82.4832 9.61967 82.4832 9.91663V26.243C82.4832 29.4685 83.6806 34.8828 91.6947 34.8828H96.7229C104.737 34.8828 105.934 29.4685 105.934 26.243V9.91663C105.934 9.61967 105.723 9.38005 105.46 9.38005H101.636C101.374 9.38005 101.162 9.61967 101.162 9.91663V25.2844C101.162 28.2593 100.679 30.2099 94.2226 30.2099C87.7456 30.2099 87.2628 28.2593 87.2628 25.2844V9.91663C87.2628 9.61967 87.0487 9.38005 86.7862 9.38005H82.9598ZM15.0994 9.40366C7.00669 9.40366 4 11.2014 4 16.0327V17.4001C4 22.3345 6.12774 24.3469 11.349 24.3469H18.7393C22.8116 24.3469 22.8121 25.4931 22.8121 27.0792V27.2616C22.8121 29.8594 22.0559 30.2179 16.6005 30.2179H5.20641C4.94393 30.2179 4.72983 30.4601 4.72983 30.7571V34.3542C4.72983 34.6511 4.94393 34.8934 5.20641 34.8934H17.3672C21.1896 34.8934 27.5848 34.8927 27.5848 27.3996V27.3084C27.5848 20.2509 23.3242 19.6766 18.1753 19.6766H12.3159C8.77172 19.6766 8.77267 18.6714 8.77267 17.4001V16.5327C8.77267 14.7065 9.0344 14.0765 14.1739 14.0765H26.406C26.6685 14.0765 26.8803 13.8342 26.8803 13.5373V9.94278C26.8803 9.64583 26.6685 9.4036 26.406 9.4036L15.0994 9.40366Z" stroke="#333333" stroke-width="2" mask="url(#path-1-inside-1_10_108)"/>
<path d="M128.512 0.537005C128.512 0.240063 128.724 0.000440092 128.986 0.000440092L132.81 0C133.073 0 133.284 0.239623 133.284 0.536579V10.3068C134.473 9.70583 136.036 9.36914 137.709 9.36914H139.572C139.592 9.36914 139.611 9.37048 139.63 9.37448L142.084 9.38781C150.648 9.38781 151.574 15.4195 151.574 18.012V34.354C151.574 34.6509 151.362 34.8932 151.1 34.8932H147.289C147.027 34.8932 146.815 34.6509 146.815 34.354V19.3404C146.815 16.2678 146.291 14.0934 139.563 14.0867C133.71 14.2236 133.411 15.357 133.282 19.244L133.284 34.354C133.284 34.498 133.236 34.6329 133.146 34.7343C133.057 34.8357 132.936 34.8932 132.81 34.8932H128.986C128.724 34.8932 128.512 34.6535 128.512 34.3566L128.5 19.3951C128.5 18.7301 128.507 18.3507 128.516 18.1266C128.507 18.0875 128.502 18.0451 128.502 18.0042C128.502 17.8495 128.506 17.6904 128.512 17.5588V0.537005Z" stroke="#333333" stroke-width="2" mask="url(#path-1-inside-1_10_108)"/>
<path d="M154.185 18.0459C154.185 9.96595 159.898 9.28882 165.749 9.28882L166.313 9.29429C174.467 9.29429 177.5 11.0708 177.5 15.8451V22.8471C177.5 23 177.391 23.1258 177.256 23.1258H160.242C160.108 23.1258 160 23 160 22.8471V19.3C160 19.1343 160.134 19 160.3 19H173.075L173.075 16.5015C173.075 14.3802 172.623 13.6962 167.264 13.6962H165.793C160.403 13.7194 158.61 14.357 158.61 18.0982L158.605 25.704L158.607 26.1624C158.607 29.9338 160.472 30.5722 166.078 30.5722L167.266 30.5615C172.623 30.5615 173.075 29.8735 173.075 27.738V27.6573C173.075 27.5044 173.183 27.3786 173.317 27.3786H177.256C177.391 27.3786 177.5 27.5044 177.5 27.6573V28.4491C177.5 33.2235 174.466 35 166.306 35L165.749 34.9973C159.894 34.9973 154.178 34.3215 154.178 26.2611L154.185 18.0459Z" stroke="#333333" stroke-width="2" mask="url(#path-1-inside-1_10_108)"/>
<path d="M180.912 9.14819C180.65 9.14819 180.438 9.38781 180.438 9.68476V17.5588C180.432 17.6904 180.428 17.8495 180.428 18.0042C180.428 18.0451 180.433 18.0875 180.442 18.1266C180.433 18.3507 180.426 18.7301 180.426 19.3951L180.438 34.3566C180.438 34.6535 180.65 34.8932 180.912 34.8932H184.736C184.862 34.8932 184.983 34.8357 185.072 34.7343C185.162 34.6329 185.211 34.498 185.211 34.354L185.208 19.244C185.335 15.4238 186.137 14.4634 191.703 14.2947C191.857 14.29 191.986 14.1704 191.999 14.0194C192 14.0023 192.001 13.9877 192.004 13.9708C192.059 13.6538 192.665 10.1405 192.665 9.98233C192.665 9.83545 192.56 9.71313 192.421 9.68873C192.385 9.68242 192.349 9.6781 192.315 9.66617C190.422 9.01232 186.135 9.68906 185.208 10.1624V9.5C185.208 9.20304 184.999 9.14775 184.736 9.14775L180.912 9.14819Z" stroke="#333333" stroke-width="2" mask="url(#path-1-inside-1_10_108)"/>
</g>
<defs>
<filter id="filter0_d_10_108" x="0" y="0" width="196.665" height="43" filterUnits="userSpaceOnUse" color-interpolation-filters="sRGB">
<feFlood flood-opacity="0" result="BackgroundImageFix"/>
<feColorMatrix in="SourceAlpha" type="matrix" values="0 0 0 0 0 0 0 0 0 0 0 0 0 0 0 0 0 0 127 0" result="hardAlpha"/>
<feOffset dy="4"/>
<feGaussianBlur stdDeviation="2"/>
<feComposite in2="hardAlpha" operator="out"/>
<feColorMatrix type="matrix" values="0 0 0 0 0 0 0 0 0 0 0 0 0 0 0 0 0 0 0.25 0"/>
<feBlend mode="normal" in2="BackgroundImageFix" result="effect1_dropShadow_10_108"/>
<feBlend mode="normal" in="SourceGraphic" in2="effect1_dropShadow_10_108" result="shape"/>
</filter>
</defs>
</svg>
