<svg width="42" height="33" viewBox="0 0 42 33" fill="none" xmlns="http://www.w3.org/2000/svg">
<g filter="url(#filter0_d_24_1350)">
<path d="M4 12.4559C4 10.4645 5.61436 8.85016 7.60578 8.85016H25.2076C27.199 8.85016 28.8134 10.4645 28.8134 12.4559C28.8134 14.4474 27.199 16.0617 25.2076 16.0617H7.60579C5.61437 16.0617 4 14.4474 4 12.4559Z" fill="#76ABAE"/>
<path d="M13.1866 3.60578C13.1866 1.61436 14.4716 0 16.0568 0H35.1298C36.715 0 38 1.61436 38 3.60578C38 5.5972 36.715 7.21157 35.1298 7.21157H16.0568C14.4716 7.21157 13.1866 5.5972 13.1866 3.60578Z" fill="#76ABAE"/>
<path d="M13.1866 3.60578C13.1866 1.61436 14.4716 0 16.0568 0H35.1298C36.715 0 38 1.61436 38 3.60578C38 5.5972 36.715 7.21157 35.1298 7.21157H16.0568C14.4716 7.21157 13.1866 5.5972 13.1866 3.60578Z" fill="#76ABAE"/>
<path d="M13.1866 21.3942C13.1866 19.4028 14.4716 17.7884 16.0568 17.7884H35.1298C36.715 17.7884 38 19.4028 38 21.3942C38 23.3856 36.715 25 35.1298 25H16.0568C14.4716 25 13.1866 23.3856 13.1866 21.3942Z" fill="#76ABAE"/>
</g>
<defs>
<filter id="filter0_d_24_1350" x="0" y="0" width="42" height="33" filterUnits="userSpaceOnUse" color-interpolation-filters="sRGB">
<feFlood flood-opacity="0" result="BackgroundImageFix"/>
<feColorMatrix in="SourceAlpha" type="matrix" values="0 0 0 0 0 0 0 0 0 0 0 0 0 0 0 0 0 0 127 0" result="hardAlpha"/>
<feOffset dy="4"/>
<feGaussianBlur stdDeviation="2"/>
<feComposite in2="hardAlpha" operator="out"/>
<feColorMatrix type="matrix" values="0 0 0 0 0 0 0 0 0 0 0 0 0 0 0 0 0 0 0.25 0"/>
<feBlend mode="normal" in2="BackgroundImageFix" result="effect1_dropShadow_24_1350"/>
<feBlend mode="normal" in="SourceGraphic" in2="effect1_dropShadow_24_1350" result="shape"/>
</filter>
</defs>
</svg>
