<svg width="29" height="26" viewBox="0 0 29 26" fill="none" xmlns="http://www.w3.org/2000/svg">
<path d="M2.09954 0C0.939638 0 0 1.07322 0 2.398V3.69351C0 5.0183 0.939638 6.09152 2.09954 6.09152H21.088C22.2494 6.09152 23.1898 5.0183 23.1898 3.69351V2.398C23.1898 1.07322 22.2494 0 21.088 0H2.09954ZM7.91205 9.95423C6.75214 9.95423 5.81019 11.0275 5.81019 12.3522V13.6478C5.81019 14.9725 6.75214 16.0458 7.91205 16.0458H26.9005C28.0619 16.0458 29 14.9725 29 13.6478V12.3522C29 11.0275 28.0619 9.95423 26.9005 9.95423H7.91205ZM2.09954 19.9085C0.939638 19.9085 0 20.9817 0 22.3065V23.602C0 24.9268 0.939638 26 2.09954 26H21.088C22.2494 26 23.1898 24.9268 23.1898 23.602V22.3065C23.1898 20.9817 22.2494 19.9085 21.088 19.9085H2.09954Z" fill="#78A083"/>
</svg>
