<svg width="239" height="43" viewBox="0 0 239 43" fill="none" xmlns="http://www.w3.org/2000/svg">
<g filter="url(#filter0_d_102_3548)">
<g filter="url(#filter1_d_102_3548)">
<mask id="path-1-inside-1_102_3548" fill="white">
<path d="M98.9023 0.000440121C98.6398 0.000440121 98.428 0.240063 98.428 0.537005V17.5588C98.4221 17.6904 98.4186 17.8495 98.4186 18.0042C98.4186 18.0451 98.4233 18.0875 98.4324 18.1266C98.423 18.3507 98.4162 18.7301 98.4162 19.3951L98.428 34.3566C98.428 34.6535 98.6398 34.8932 98.9023 34.8932H102.726C102.852 34.8932 102.973 34.8357 103.063 34.7343C103.152 34.6329 103.201 34.498 103.201 34.354L103.198 19.244C103.327 15.357 103.626 14.2236 109.479 14.0867C116.207 14.0934 116.731 16.2678 116.731 19.3404V34.354C116.731 34.6509 116.943 34.8932 117.206 34.8932H121.016C121.278 34.8932 121.49 34.6509 121.49 34.354V18.012C121.49 15.4195 120.564 9.38781 112 9.38781L109.546 9.37448C109.527 9.37048 109.509 9.36914 109.488 9.36914H107.626C105.952 9.36914 104.389 9.70583 103.201 10.3068V0.536579C103.201 0.239623 102.989 0 102.726 0L98.9023 0.000440121ZM159.004 0.000440121C154.282 0.000440121 151.577 3.08094 151.577 8.45272V34.354C151.577 34.6509 151.788 34.8931 152.051 34.8931H155.873C156.135 34.8931 156.347 34.6509 156.347 34.354V14.0659H163.406C163.668 14.0659 163.882 13.8263 163.882 13.5293V9.93741C163.882 9.63868 163.668 9.39824 163.406 9.39824H156.347V7.63225C156.347 5.66917 157.337 4.6733 159.287 4.6733H167.246C167.509 4.6733 167.72 4.4319 167.72 4.13672V0.537005C167.72 0.240063 167.509 0.000440121 167.246 0.000440121H159.004ZM83.7278 9.28883C77.8764 9.28883 72.1634 9.96596 72.1634 18.0459L72.1563 26.2611C72.1563 34.3215 77.8731 34.9973 83.7277 34.9973L84.2848 35C92.4451 35 95.4786 33.2235 95.4786 28.4492V27.6573C95.4786 27.5044 95.3697 27.3786 95.2346 27.3786H91.2953C91.1617 27.3786 91.0536 27.5044 91.0536 27.6573V27.738C91.0536 29.8736 90.6012 30.5615 85.2449 30.5615L84.0569 30.5722C78.4506 30.5722 76.5859 29.9339 76.5859 26.1624L76.5836 25.704L76.5883 18.0982C76.5883 14.357 78.3821 13.7194 83.7715 13.6963H85.2426C90.6021 13.6963 91.0536 14.3802 91.0536 16.5015V16.6396C91.0536 16.7925 91.1618 16.9183 91.2954 16.9183H95.2346C95.3698 16.9183 95.4787 16.7925 95.4787 16.6396V15.8451C95.4787 11.0708 92.4458 9.2943 84.2918 9.2943L83.7278 9.28883ZM124.96 9.38005C124.697 9.38005 124.483 9.61967 124.483 9.91663V26.243C124.483 29.4685 125.681 34.8828 133.695 34.8828H138.723C146.737 34.8828 147.934 29.4685 147.934 26.243V9.91663C147.934 9.61967 147.723 9.38005 147.46 9.38005H143.636C143.374 9.38005 143.162 9.61967 143.162 9.91663V25.2844C143.162 28.2593 142.679 30.2099 136.223 30.2099C129.746 30.2099 129.263 28.2593 129.263 25.2844V9.91663C129.263 9.61967 129.049 9.38005 128.786 9.38005H124.96ZM57.0994 9.40366C49.0067 9.40366 46 11.2014 46 16.0327V17.4001C46 22.3345 48.1277 24.3469 53.349 24.3469H60.7393C64.8116 24.3469 64.8121 25.4931 64.8121 27.0792V27.2616C64.8121 29.8594 64.0559 30.2179 58.6005 30.2179H47.2064C46.9439 30.2179 46.7298 30.4601 46.7298 30.7571V34.3542C46.7298 34.6511 46.9439 34.8934 47.2064 34.8934H59.3672C63.1896 34.8934 69.5848 34.8927 69.5848 27.3996V27.3084C69.5848 20.2509 65.3242 19.6766 60.1753 19.6766H54.3159C50.7717 19.6766 50.7727 18.6714 50.7727 17.4001V16.5327C50.7727 14.7065 51.0344 14.0765 56.1739 14.0765H68.406C68.6685 14.0765 68.8803 13.8342 68.8803 13.5373V9.94278C68.8803 9.64583 68.6685 9.4036 68.406 9.4036L57.0994 9.40366Z"/>
<path d="M170.512 0.537005C170.512 0.240063 170.724 0.000440092 170.986 0.000440092L174.81 0C175.073 0 175.284 0.239623 175.284 0.536579V10.3068C176.473 9.70583 178.036 9.36914 179.709 9.36914H181.572C181.592 9.36914 181.611 9.37048 181.63 9.37448L184.084 9.38781C192.648 9.38781 193.574 15.4195 193.574 18.012V34.354C193.574 34.6509 193.362 34.8932 193.1 34.8932H189.289C189.027 34.8932 188.815 34.6509 188.815 34.354V19.3404C188.815 16.2678 188.291 14.0934 181.563 14.0867C175.71 14.2236 175.411 15.357 175.282 19.244L175.284 34.354C175.284 34.498 175.236 34.6329 175.146 34.7343C175.057 34.8357 174.936 34.8932 174.81 34.8932H170.986C170.724 34.8932 170.512 34.6535 170.512 34.3566L170.5 19.3951C170.5 18.7301 170.507 18.3507 170.516 18.1266C170.507 18.0875 170.502 18.0451 170.502 18.0042C170.502 17.8495 170.506 17.6904 170.512 17.5588V0.537005Z"/>
<path d="M196.185 18.0459C196.185 9.96595 201.898 9.28882 207.749 9.28882L208.313 9.29429C216.467 9.29429 219.5 11.0708 219.5 15.8451V22.8471C219.5 23 219.391 23.1258 219.256 23.1258H202.242C202.108 23.1258 202 23 202 22.8471V19.3C202 19.1343 202.134 19 202.3 19H215.075L215.075 16.5015C215.075 14.3802 214.623 13.6962 209.264 13.6962H207.793C202.403 13.7194 200.61 14.357 200.61 18.0982L200.605 25.704L200.607 26.1624C200.607 29.9338 202.472 30.5722 208.078 30.5722L209.266 30.5615C214.623 30.5615 215.075 29.8735 215.075 27.738V27.6573C215.075 27.5044 215.183 27.3786 215.317 27.3786H219.256C219.391 27.3786 219.5 27.5044 219.5 27.6573V28.4491C219.5 33.2235 216.466 35 208.306 35L207.749 34.9973C201.894 34.9973 196.178 34.3215 196.178 26.2611L196.185 18.0459Z"/>
<path d="M222.912 9.14819C222.65 9.14819 222.438 9.38781 222.438 9.68476V17.5588C222.432 17.6904 222.428 17.8495 222.428 18.0042C222.428 18.0451 222.433 18.0875 222.442 18.1266C222.433 18.3507 222.426 18.7301 222.426 19.3951L222.438 34.3566C222.438 34.6535 222.65 34.8932 222.912 34.8932H226.736C226.862 34.8932 226.983 34.8357 227.072 34.7343C227.162 34.6329 227.211 34.498 227.211 34.354L227.208 19.244C227.335 15.4238 228.137 14.4634 233.703 14.2947C233.857 14.29 233.986 14.1704 233.999 14.0194C234 14.0023 234.001 13.9877 234.004 13.9708C234.059 13.6538 234.665 10.1405 234.665 9.98233C234.665 9.83545 234.56 9.71313 234.421 9.68873C234.385 9.68242 234.349 9.6781 234.315 9.66617C232.422 9.01232 228.135 9.68906 227.208 10.1624V9.5C227.208 9.20304 226.999 9.14775 226.736 9.14775L222.912 9.14819Z"/>
</mask>
<path d="M98.9023 0.000440121C98.6398 0.000440121 98.428 0.240063 98.428 0.537005V17.5588C98.4221 17.6904 98.4186 17.8495 98.4186 18.0042C98.4186 18.0451 98.4233 18.0875 98.4324 18.1266C98.423 18.3507 98.4162 18.7301 98.4162 19.3951L98.428 34.3566C98.428 34.6535 98.6398 34.8932 98.9023 34.8932H102.726C102.852 34.8932 102.973 34.8357 103.063 34.7343C103.152 34.6329 103.201 34.498 103.201 34.354L103.198 19.244C103.327 15.357 103.626 14.2236 109.479 14.0867C116.207 14.0934 116.731 16.2678 116.731 19.3404V34.354C116.731 34.6509 116.943 34.8932 117.206 34.8932H121.016C121.278 34.8932 121.49 34.6509 121.49 34.354V18.012C121.49 15.4195 120.564 9.38781 112 9.38781L109.546 9.37448C109.527 9.37048 109.509 9.36914 109.488 9.36914H107.626C105.952 9.36914 104.389 9.70583 103.201 10.3068V0.536579C103.201 0.239623 102.989 0 102.726 0L98.9023 0.000440121ZM159.004 0.000440121C154.282 0.000440121 151.577 3.08094 151.577 8.45272V34.354C151.577 34.6509 151.788 34.8931 152.051 34.8931H155.873C156.135 34.8931 156.347 34.6509 156.347 34.354V14.0659H163.406C163.668 14.0659 163.882 13.8263 163.882 13.5293V9.93741C163.882 9.63868 163.668 9.39824 163.406 9.39824H156.347V7.63225C156.347 5.66917 157.337 4.6733 159.287 4.6733H167.246C167.509 4.6733 167.72 4.4319 167.72 4.13672V0.537005C167.72 0.240063 167.509 0.000440121 167.246 0.000440121H159.004ZM83.7278 9.28883C77.8764 9.28883 72.1634 9.96596 72.1634 18.0459L72.1563 26.2611C72.1563 34.3215 77.8731 34.9973 83.7277 34.9973L84.2848 35C92.4451 35 95.4786 33.2235 95.4786 28.4492V27.6573C95.4786 27.5044 95.3697 27.3786 95.2346 27.3786H91.2953C91.1617 27.3786 91.0536 27.5044 91.0536 27.6573V27.738C91.0536 29.8736 90.6012 30.5615 85.2449 30.5615L84.0569 30.5722C78.4506 30.5722 76.5859 29.9339 76.5859 26.1624L76.5836 25.704L76.5883 18.0982C76.5883 14.357 78.3821 13.7194 83.7715 13.6963H85.2426C90.6021 13.6963 91.0536 14.3802 91.0536 16.5015V16.6396C91.0536 16.7925 91.1618 16.9183 91.2954 16.9183H95.2346C95.3698 16.9183 95.4787 16.7925 95.4787 16.6396V15.8451C95.4787 11.0708 92.4458 9.2943 84.2918 9.2943L83.7278 9.28883ZM124.96 9.38005C124.697 9.38005 124.483 9.61967 124.483 9.91663V26.243C124.483 29.4685 125.681 34.8828 133.695 34.8828H138.723C146.737 34.8828 147.934 29.4685 147.934 26.243V9.91663C147.934 9.61967 147.723 9.38005 147.46 9.38005H143.636C143.374 9.38005 143.162 9.61967 143.162 9.91663V25.2844C143.162 28.2593 142.679 30.2099 136.223 30.2099C129.746 30.2099 129.263 28.2593 129.263 25.2844V9.91663C129.263 9.61967 129.049 9.38005 128.786 9.38005H124.96ZM57.0994 9.40366C49.0067 9.40366 46 11.2014 46 16.0327V17.4001C46 22.3345 48.1277 24.3469 53.349 24.3469H60.7393C64.8116 24.3469 64.8121 25.4931 64.8121 27.0792V27.2616C64.8121 29.8594 64.0559 30.2179 58.6005 30.2179H47.2064C46.9439 30.2179 46.7298 30.4601 46.7298 30.7571V34.3542C46.7298 34.6511 46.9439 34.8934 47.2064 34.8934H59.3672C63.1896 34.8934 69.5848 34.8927 69.5848 27.3996V27.3084C69.5848 20.2509 65.3242 19.6766 60.1753 19.6766H54.3159C50.7717 19.6766 50.7727 18.6714 50.7727 17.4001V16.5327C50.7727 14.7065 51.0344 14.0765 56.1739 14.0765H68.406C68.6685 14.0765 68.8803 13.8342 68.8803 13.5373V9.94278C68.8803 9.64583 68.6685 9.4036 68.406 9.4036L57.0994 9.40366Z" fill="white"/>
<path d="M170.512 0.537005C170.512 0.240063 170.724 0.000440092 170.986 0.000440092L174.81 0C175.073 0 175.284 0.239623 175.284 0.536579V10.3068C176.473 9.70583 178.036 9.36914 179.709 9.36914H181.572C181.592 9.36914 181.611 9.37048 181.63 9.37448L184.084 9.38781C192.648 9.38781 193.574 15.4195 193.574 18.012V34.354C193.574 34.6509 193.362 34.8932 193.1 34.8932H189.289C189.027 34.8932 188.815 34.6509 188.815 34.354V19.3404C188.815 16.2678 188.291 14.0934 181.563 14.0867C175.71 14.2236 175.411 15.357 175.282 19.244L175.284 34.354C175.284 34.498 175.236 34.6329 175.146 34.7343C175.057 34.8357 174.936 34.8932 174.81 34.8932H170.986C170.724 34.8932 170.512 34.6535 170.512 34.3566L170.5 19.3951C170.5 18.7301 170.507 18.3507 170.516 18.1266C170.507 18.0875 170.502 18.0451 170.502 18.0042C170.502 17.8495 170.506 17.6904 170.512 17.5588V0.537005Z" fill="white"/>
<path d="M196.185 18.0459C196.185 9.96595 201.898 9.28882 207.749 9.28882L208.313 9.29429C216.467 9.29429 219.5 11.0708 219.5 15.8451V22.8471C219.5 23 219.391 23.1258 219.256 23.1258H202.242C202.108 23.1258 202 23 202 22.8471V19.3C202 19.1343 202.134 19 202.3 19H215.075L215.075 16.5015C215.075 14.3802 214.623 13.6962 209.264 13.6962H207.793C202.403 13.7194 200.61 14.357 200.61 18.0982L200.605 25.704L200.607 26.1624C200.607 29.9338 202.472 30.5722 208.078 30.5722L209.266 30.5615C214.623 30.5615 215.075 29.8735 215.075 27.738V27.6573C215.075 27.5044 215.183 27.3786 215.317 27.3786H219.256C219.391 27.3786 219.5 27.5044 219.5 27.6573V28.4491C219.5 33.2235 216.466 35 208.306 35L207.749 34.9973C201.894 34.9973 196.178 34.3215 196.178 26.2611L196.185 18.0459Z" fill="white"/>
<path d="M222.912 9.14819C222.65 9.14819 222.438 9.38781 222.438 9.68476V17.5588C222.432 17.6904 222.428 17.8495 222.428 18.0042C222.428 18.0451 222.433 18.0875 222.442 18.1266C222.433 18.3507 222.426 18.7301 222.426 19.3951L222.438 34.3566C222.438 34.6535 222.65 34.8932 222.912 34.8932H226.736C226.862 34.8932 226.983 34.8357 227.072 34.7343C227.162 34.6329 227.211 34.498 227.211 34.354L227.208 19.244C227.335 15.4238 228.137 14.4634 233.703 14.2947C233.857 14.29 233.986 14.1704 233.999 14.0194C234 14.0023 234.001 13.9877 234.004 13.9708C234.059 13.6538 234.665 10.1405 234.665 9.98233C234.665 9.83545 234.56 9.71313 234.421 9.68873C234.385 9.68242 234.349 9.6781 234.315 9.66617C232.422 9.01232 228.135 9.68906 227.208 10.1624V9.5C227.208 9.20304 226.999 9.14775 226.736 9.14775L222.912 9.14819Z" fill="white"/>
<path d="M98.9023 0.000440121C98.6398 0.000440121 98.428 0.240063 98.428 0.537005V17.5588C98.4221 17.6904 98.4186 17.8495 98.4186 18.0042C98.4186 18.0451 98.4233 18.0875 98.4324 18.1266C98.423 18.3507 98.4162 18.7301 98.4162 19.3951L98.428 34.3566C98.428 34.6535 98.6398 34.8932 98.9023 34.8932H102.726C102.852 34.8932 102.973 34.8357 103.063 34.7343C103.152 34.6329 103.201 34.498 103.201 34.354L103.198 19.244C103.327 15.357 103.626 14.2236 109.479 14.0867C116.207 14.0934 116.731 16.2678 116.731 19.3404V34.354C116.731 34.6509 116.943 34.8932 117.206 34.8932H121.016C121.278 34.8932 121.49 34.6509 121.49 34.354V18.012C121.49 15.4195 120.564 9.38781 112 9.38781L109.546 9.37448C109.527 9.37048 109.509 9.36914 109.488 9.36914H107.626C105.952 9.36914 104.389 9.70583 103.201 10.3068V0.536579C103.201 0.239623 102.989 0 102.726 0L98.9023 0.000440121ZM159.004 0.000440121C154.282 0.000440121 151.577 3.08094 151.577 8.45272V34.354C151.577 34.6509 151.788 34.8931 152.051 34.8931H155.873C156.135 34.8931 156.347 34.6509 156.347 34.354V14.0659H163.406C163.668 14.0659 163.882 13.8263 163.882 13.5293V9.93741C163.882 9.63868 163.668 9.39824 163.406 9.39824H156.347V7.63225C156.347 5.66917 157.337 4.6733 159.287 4.6733H167.246C167.509 4.6733 167.72 4.4319 167.72 4.13672V0.537005C167.72 0.240063 167.509 0.000440121 167.246 0.000440121H159.004ZM83.7278 9.28883C77.8764 9.28883 72.1634 9.96596 72.1634 18.0459L72.1563 26.2611C72.1563 34.3215 77.8731 34.9973 83.7277 34.9973L84.2848 35C92.4451 35 95.4786 33.2235 95.4786 28.4492V27.6573C95.4786 27.5044 95.3697 27.3786 95.2346 27.3786H91.2953C91.1617 27.3786 91.0536 27.5044 91.0536 27.6573V27.738C91.0536 29.8736 90.6012 30.5615 85.2449 30.5615L84.0569 30.5722C78.4506 30.5722 76.5859 29.9339 76.5859 26.1624L76.5836 25.704L76.5883 18.0982C76.5883 14.357 78.3821 13.7194 83.7715 13.6963H85.2426C90.6021 13.6963 91.0536 14.3802 91.0536 16.5015V16.6396C91.0536 16.7925 91.1618 16.9183 91.2954 16.9183H95.2346C95.3698 16.9183 95.4787 16.7925 95.4787 16.6396V15.8451C95.4787 11.0708 92.4458 9.2943 84.2918 9.2943L83.7278 9.28883ZM124.96 9.38005C124.697 9.38005 124.483 9.61967 124.483 9.91663V26.243C124.483 29.4685 125.681 34.8828 133.695 34.8828H138.723C146.737 34.8828 147.934 29.4685 147.934 26.243V9.91663C147.934 9.61967 147.723 9.38005 147.46 9.38005H143.636C143.374 9.38005 143.162 9.61967 143.162 9.91663V25.2844C143.162 28.2593 142.679 30.2099 136.223 30.2099C129.746 30.2099 129.263 28.2593 129.263 25.2844V9.91663C129.263 9.61967 129.049 9.38005 128.786 9.38005H124.96ZM57.0994 9.40366C49.0067 9.40366 46 11.2014 46 16.0327V17.4001C46 22.3345 48.1277 24.3469 53.349 24.3469H60.7393C64.8116 24.3469 64.8121 25.4931 64.8121 27.0792V27.2616C64.8121 29.8594 64.0559 30.2179 58.6005 30.2179H47.2064C46.9439 30.2179 46.7298 30.4601 46.7298 30.7571V34.3542C46.7298 34.6511 46.9439 34.8934 47.2064 34.8934H59.3672C63.1896 34.8934 69.5848 34.8927 69.5848 27.3996V27.3084C69.5848 20.2509 65.3242 19.6766 60.1753 19.6766H54.3159C50.7717 19.6766 50.7727 18.6714 50.7727 17.4001V16.5327C50.7727 14.7065 51.0344 14.0765 56.1739 14.0765H68.406C68.6685 14.0765 68.8803 13.8342 68.8803 13.5373V9.94278C68.8803 9.64583 68.6685 9.4036 68.406 9.4036L57.0994 9.40366Z" stroke="white" stroke-width="4" mask="url(#path-1-inside-1_102_3548)"/>
<path d="M170.512 0.537005C170.512 0.240063 170.724 0.000440092 170.986 0.000440092L174.81 0C175.073 0 175.284 0.239623 175.284 0.536579V10.3068C176.473 9.70583 178.036 9.36914 179.709 9.36914H181.572C181.592 9.36914 181.611 9.37048 181.63 9.37448L184.084 9.38781C192.648 9.38781 193.574 15.4195 193.574 18.012V34.354C193.574 34.6509 193.362 34.8932 193.1 34.8932H189.289C189.027 34.8932 188.815 34.6509 188.815 34.354V19.3404C188.815 16.2678 188.291 14.0934 181.563 14.0867C175.71 14.2236 175.411 15.357 175.282 19.244L175.284 34.354C175.284 34.498 175.236 34.6329 175.146 34.7343C175.057 34.8357 174.936 34.8932 174.81 34.8932H170.986C170.724 34.8932 170.512 34.6535 170.512 34.3566L170.5 19.3951C170.5 18.7301 170.507 18.3507 170.516 18.1266C170.507 18.0875 170.502 18.0451 170.502 18.0042C170.502 17.8495 170.506 17.6904 170.512 17.5588V0.537005Z" stroke="white" stroke-width="4" mask="url(#path-1-inside-1_102_3548)"/>
<path d="M196.185 18.0459C196.185 9.96595 201.898 9.28882 207.749 9.28882L208.313 9.29429C216.467 9.29429 219.5 11.0708 219.5 15.8451V22.8471C219.5 23 219.391 23.1258 219.256 23.1258H202.242C202.108 23.1258 202 23 202 22.8471V19.3C202 19.1343 202.134 19 202.3 19H215.075L215.075 16.5015C215.075 14.3802 214.623 13.6962 209.264 13.6962H207.793C202.403 13.7194 200.61 14.357 200.61 18.0982L200.605 25.704L200.607 26.1624C200.607 29.9338 202.472 30.5722 208.078 30.5722L209.266 30.5615C214.623 30.5615 215.075 29.8735 215.075 27.738V27.6573C215.075 27.5044 215.183 27.3786 215.317 27.3786H219.256C219.391 27.3786 219.5 27.5044 219.5 27.6573V28.4491C219.5 33.2235 216.466 35 208.306 35L207.749 34.9973C201.894 34.9973 196.178 34.3215 196.178 26.2611L196.185 18.0459Z" stroke="white" stroke-width="4" mask="url(#path-1-inside-1_102_3548)"/>
<path d="M222.912 9.14819C222.65 9.14819 222.438 9.38781 222.438 9.68476V17.5588C222.432 17.6904 222.428 17.8495 222.428 18.0042C222.428 18.0451 222.433 18.0875 222.442 18.1266C222.433 18.3507 222.426 18.7301 222.426 19.3951L222.438 34.3566C222.438 34.6535 222.65 34.8932 222.912 34.8932H226.736C226.862 34.8932 226.983 34.8357 227.072 34.7343C227.162 34.6329 227.211 34.498 227.211 34.354L227.208 19.244C227.335 15.4238 228.137 14.4634 233.703 14.2947C233.857 14.29 233.986 14.1704 233.999 14.0194C234 14.0023 234.001 13.9877 234.004 13.9708C234.059 13.6538 234.665 10.1405 234.665 9.98233C234.665 9.83545 234.56 9.71313 234.421 9.68873C234.385 9.68242 234.349 9.6781 234.315 9.66617C232.422 9.01232 228.135 9.68906 227.208 10.1624V9.5C227.208 9.20304 226.999 9.14775 226.736 9.14775L222.912 9.14819Z" stroke="white" stroke-width="4" mask="url(#path-1-inside-1_102_3548)"/>
</g>
<g filter="url(#filter2_d_102_3548)">
<path d="M4 22.4559C4 20.4645 5.61436 18.8502 7.60578 18.8502H25.2076C27.199 18.8502 28.8134 20.4645 28.8134 22.4559V22.4559C28.8134 24.4474 27.199 26.0617 25.2076 26.0617H7.60579C5.61437 26.0617 4 24.4474 4 22.4559V22.4559Z" fill="#76ABAE"/>
<path d="M13.1866 13.6058C13.1866 11.6144 14.4716 10 16.0568 10H35.1298C36.715 10 38 11.6144 38 13.6058C38 15.5972 36.715 17.2116 35.1298 17.2116H16.0568C14.4716 17.2116 13.1866 15.5972 13.1866 13.6058Z" fill="#76ABAE"/>
<path d="M13.1866 13.6058C13.1866 11.6144 14.4716 10 16.0568 10H35.1298C36.715 10 38 11.6144 38 13.6058C38 15.5972 36.715 17.2116 35.1298 17.2116H16.0568C14.4716 17.2116 13.1866 15.5972 13.1866 13.6058Z" fill="#76ABAE"/>
<path d="M13.1866 31.3942C13.1866 29.4028 14.4716 27.7884 16.0568 27.7884H35.1298C36.715 27.7884 38 29.4028 38 31.3942C38 33.3856 36.715 35 35.1298 35H16.0568C14.4716 35 13.1866 33.3856 13.1866 31.3942Z" fill="#76ABAE"/>
</g>
</g>
<defs>
<filter id="filter0_d_102_3548" x="0" y="0" width="238.665" height="43" filterUnits="userSpaceOnUse" color-interpolation-filters="sRGB">
<feFlood flood-opacity="0" result="BackgroundImageFix"/>
<feColorMatrix in="SourceAlpha" type="matrix" values="0 0 0 0 0 0 0 0 0 0 0 0 0 0 0 0 0 0 127 0" result="hardAlpha"/>
<feOffset dy="4"/>
<feGaussianBlur stdDeviation="2"/>
<feComposite in2="hardAlpha" operator="out"/>
<feColorMatrix type="matrix" values="0 0 0 0 0 0 0 0 0 0 0 0 0 0 0 0 0 0 0.25 0"/>
<feBlend mode="normal" in2="BackgroundImageFix" result="effect1_dropShadow_102_3548"/>
<feBlend mode="normal" in="SourceGraphic" in2="effect1_dropShadow_102_3548" result="shape"/>
</filter>
<filter id="filter1_d_102_3548" x="42" y="0" width="196.665" height="43" filterUnits="userSpaceOnUse" color-interpolation-filters="sRGB">
<feFlood flood-opacity="0" result="BackgroundImageFix"/>
<feColorMatrix in="SourceAlpha" type="matrix" values="0 0 0 0 0 0 0 0 0 0 0 0 0 0 0 0 0 0 127 0" result="hardAlpha"/>
<feOffset dy="4"/>
<feGaussianBlur stdDeviation="2"/>
<feComposite in2="hardAlpha" operator="out"/>
<feColorMatrix type="matrix" values="0 0 0 0 0 0 0 0 0 0 0 0 0 0 0 0 0 0 0.25 0"/>
<feBlend mode="normal" in2="BackgroundImageFix" result="effect1_dropShadow_102_3548"/>
<feBlend mode="normal" in="SourceGraphic" in2="effect1_dropShadow_102_3548" result="shape"/>
</filter>
<filter id="filter2_d_102_3548" x="0" y="10" width="42" height="33" filterUnits="userSpaceOnUse" color-interpolation-filters="sRGB">
<feFlood flood-opacity="0" result="BackgroundImageFix"/>
<feColorMatrix in="SourceAlpha" type="matrix" values="0 0 0 0 0 0 0 0 0 0 0 0 0 0 0 0 0 0 127 0" result="hardAlpha"/>
<feOffset dy="4"/>
<feGaussianBlur stdDeviation="2"/>
<feComposite in2="hardAlpha" operator="out"/>
<feColorMatrix type="matrix" values="0 0 0 0 0 0 0 0 0 0 0 0 0 0 0 0 0 0 0.25 0"/>
<feBlend mode="normal" in2="BackgroundImageFix" result="effect1_dropShadow_102_3548"/>
<feBlend mode="normal" in="SourceGraphic" in2="effect1_dropShadow_102_3548" result="shape"/>
</filter>
</defs>
</svg>
